<?xml version="1.0" encoding="UTF-8"?>
<svg id="Layer_2" data-name="Layer 2" xmlns="http://www.w3.org/2000/svg" viewBox="0 0 47.17 59.7">
  <defs>
    <style>
      .cls-1 {
        fill: #2c2957;
      }
    </style>
  </defs>
  <g id="Layer_2-2" data-name="Layer 2">
    <g>
      <path class="cls-1" d="M25.22,0c19.5,1.27,29.04,25.01,15.85,39.44v13.22c-2.37.07-4.81-.05-6.99-1.05v8.04c-3.84.28-7.46-.72-10.52-3.01-2.97,2.36-6.67,3.26-10.45,3.01v-8.04c-2.18,1-4.62,1.12-6.99,1.05v-13.22C-6.96,24.88,2.18,1.65,21.77.11l.19-.11h3.26ZM43.68,23.59c0-11.1-9-20.09-20.09-20.09S3.49,12.5,3.49,23.59s9,20.09,20.09,20.09,20.09-9,20.09-20.09ZM9.6,49.05c1.2-.28,2.39-.61,3.44-1.28.13-.22.1-2.89-.06-3.09l-3.38-2.04v6.41ZM37.57,49.05v-6.41l-3.44,2.1c-.13.21-.1,2.91.06,3.09.24.27,3.27,1.37,3.38,1.22ZM30.58,46.14c-4.53,1.41-9.46,1.39-13.98,0v9.9c1.97-.39,3.77-1.26,5.3-2.57.28-.24,1.55-1.65,1.73-1.62,1.9,2.06,4.13,3.68,6.95,4.19v-9.9Z"/>
      <path class="cls-1" d="M23.7,7.11l5.08,9.31,10.53,1.99-.17.35-7.15,7.54,1.38,10.63-9.83-4.52-9.75,4.52,1.38-10.63-7.15-7.54-.17-.35,10.53-1.99c1.69-2.79,3.07-5.76,4.71-8.57.1-.18.24-.43.34-.59.07-.1-.02-.22.26-.15ZM23.7,14.33c-.27-.06-.19.04-.26.15-.87,1.35-1.52,3.1-2.4,4.47-.14.21-.24.45-.44.61l-5.75,1.06.29.58,3.73,3.94-.75,5.96,5.44-2.54,5.51,2.54-.75-5.96c.08-.35,3.12-3.23,3.61-3.83.08-.1.51-.62.41-.7l-5.75-1.06-2.87-5.23Z"/>
    </g>
  </g>
</svg>