<?xml version="1.0" encoding="UTF-8"?>
<svg id="Layer_2" data-name="Layer 2" xmlns="http://www.w3.org/2000/svg" viewBox="0 0 72.79 51.17">
  <defs>
    <style>
      .cls-1 {
        fill: #fff;
      }
    </style>
  </defs>
  <g id="Layer_2-2" data-name="Layer 2">
    <path class="cls-1" d="M72.79,5.69v39.79c-.54,3.14-2.81,5.41-6.04,5.68H6.21c-3.41-.25-5.85-2.64-6.17-6.04C.15,31.74-.21,18.31.21,4.95.93,2.07,3.26.22,6.21,0h60.54c3.03.21,5.7,2.65,6.04,5.69ZM65.4,4.27H7.42l24.87,24.8c2.47,2,5.78,2,8.25,0l24.87-24.8ZM4.29,43.77l18.32-18.24L4.29,7.4v36.38ZM68.52,43.77V7.4l-18.32,18.14,18.32,18.24ZM65.4,46.9l-18.38-18.18c-3.32,3.42-6.06,6.36-11.25,6.11-4.62-.22-6.96-3.26-10.06-6.11L7.42,46.9h57.98Z"/>
  </g>
</svg>