<?xml version="1.0" encoding="UTF-8"?>
<svg id="Layer_2" data-name="Layer 2" xmlns="http://www.w3.org/2000/svg" viewBox="0 0 64.44 64.47">
  <defs>
    <style>
      .cls-1 {
        fill: #2c2957;
      }
    </style>
  </defs>
  <g id="Layer_2-2" data-name="Layer 2">
    <g>
      <path class="cls-1" d="M34.13,0l4.68.67c26.14,5.56,34.85,38.93,14,56.35C34.11,72.65,5.59,62.3.69,38.8L.02,34.12c.05-1.25-.07-2.53,0-3.78C.95,14.23,14.25.92,30.35,0h3.78ZM60.96,32.23c0-15.87-12.86-28.73-28.72-28.73S3.52,16.36,3.52,32.23s12.86,28.73,28.72,28.73,28.72-12.86,28.72-28.73Z"/>
      <path class="cls-1" d="M48.96,40.8c.09.15-.04.31-.1.44-.61,1.25-2.86,3.42-3.98,4.33-6.89,5.58-16.37,6.01-23.76,1.11-2.19-1.45-4.36-3.53-5.63-5.82l2.84-1.83c5.27,7.92,15.81,10,23.63,4.38,1.67-1.2,3.04-2.66,4.17-4.38l2.82,1.77Z"/>
      <path class="cls-1" d="M50.11,28.32h-3.52c-.04-4.52-6.63-4.52-6.67,0h-3.52c-.05-2.25,1.07-4.46,2.93-5.69,4.65-3.09,10.85.1,10.79,5.69Z"/>
      <path class="cls-1" d="M28.09,28.32h-3.52c-.03-4.53-6.65-4.51-6.67,0h-3.52c-.07-5.59,6.14-8.78,10.79-5.69,1.86,1.24,2.98,3.45,2.93,5.69Z"/>
    </g>
  </g>
</svg>