<?xml version="1.0" encoding="UTF-8"?>
<svg id="Layer_2" data-name="Layer 2" xmlns="http://www.w3.org/2000/svg" viewBox="0 0 224.22 72.86">
  <defs>
    <style>
      .cls-1 {
        fill: #fff;
      }
    </style>
  </defs>
  <g id="Layer_2-2" data-name="Layer 2">
    <g id="Layer_2-2" data-name="Layer 2-2">
      <g id="Layer_1-2" data-name="Layer 1-2">
        <rect class="cls-1" x="60.8" y="30.4" width="4.45" height="16.48"/>
        <polygon class="cls-1" points="84.55 30.4 84.55 43.71 75.53 30.4 67.91 30.4 67.91 46.88 72.36 46.88 72.36 33.63 81.3 46.88 88.99 46.88 88.99 30.4 84.55 30.4"/>
        <polygon class="cls-1" points="90.87 30.4 90.87 34.85 97.76 34.85 97.76 46.88 102.81 46.88 102.81 34.85 109.67 34.85 109.67 30.4 90.87 30.4"/>
        <polygon class="cls-1" points="128.92 34.21 128.92 30.4 112.03 30.4 112.03 46.88 128.92 46.88 128.92 43.08 116.48 43.08 116.48 40.2 128.21 40.2 128.21 36.9 116.48 36.9 116.48 34.21 128.92 34.21"/>
        <path class="cls-1" d="M136.5,34.79c.48-.39,1.09-.58,1.82-.58h6.86c.41,0,.76.15,1.07.46.31.3.46.66.46,1.07h4.45v-1.53c0-1.05-.48-1.95-1.45-2.69-.97-.75-2.12-1.12-3.46-1.12h-10.46c-1.24,0-2.29.37-3.15,1.12-.86.74-1.3,1.64-1.3,2.69v8.88c0,1.05.44,1.95,1.32,2.69.88.74,1.92,1.11,3.12,1.11h10.46c1.37,0,2.53-.37,3.48-1.12s1.42-1.64,1.42-2.69v-5.66h-10.36v3.3h5.92c0,.64-.16,1.2-.47,1.66-.31.47-.69.7-1.13.7h-6.78c-.69,0-1.29-.23-1.79-.7-.5-.46-.75-1.02-.75-1.66v-4.43c0-.61.24-1.11.72-1.49"/>
        <path class="cls-1" d="M172.2,39.08c.39-.48.59-1.05.59-1.71v-2.79c0-1.15-.44-2.13-1.31-2.95s-1.92-1.23-3.14-1.23h-14.48v16.53h4.44v-4.19h8.64c.42,0,.76.34,1.02,1.02.25.68.38,1.74.38,3.17h4.45c0-2.17-.12-3.75-.36-4.74s-.84-1.55-1.8-1.66c.66-.49,1.18-.97,1.57-1.46M167.76,37.92c-.39.42-.85.63-1.4.63h-8.05v-3.96h8.05c.54,0,1.01.18,1.4.53s.58.78.58,1.29c0,.59-.19,1.09-.58,1.51"/>
        <rect class="cls-1" x="174.94" y="30.4" width="4.45" height="16.48"/>
        <polygon class="cls-1" points="181.6 30.4 181.6 34.85 188.48 34.85 188.48 46.88 193.54 46.88 193.54 34.85 200.4 34.85 200.4 30.4 181.6 30.4"/>
        <polygon class="cls-1" points="218.48 30.4 212.89 37.21 207.33 30.4 201.59 30.4 210.68 41.54 210.68 46.88 215.13 46.88 215.13 41.52 224.22 30.4 218.48 30.4"/>
        <path class="cls-1" d="M67.2,55.93c0,.82-.03,1.1-.15,1.36-.21.49-.65.71-1.49.77-.33.03-.98.04-2.06.04-1.56,0-2.06-.08-2.5-.37-.54-.36-.69-.95-.69-2.63,0-1.5.16-2.03.73-2.37.49-.3,1.01-.37,2.52-.37,2.02,0,2.46.04,2.92.28.44.23.64.73.64,1.56v.19h-1.57c-.03-.62-.15-.67-1.58-.67-1.35,0-1.59.03-1.8.22-.19.19-.24.42-.24,1.33,0,1.36.12,1.46,1.71,1.46,1.23,0,1.4,0,1.63-.11.24-.1.32-.28.32-.69,0,0,1.61,0,1.61,0Z"/>
        <path class="cls-1" d="M76.2,52.42c.84.16,1.24.61,1.36,1.52.03.23.05.69.05,1.38,0,1.37-.14,1.92-.6,2.32-.33.29-.78.43-1.57.46-.29.02-1.01.02-1.54.02-1.29,0-1.95-.02-2.27-.09-.6-.11-.95-.35-1.15-.76-.21-.42-.26-.83-.26-2.07,0-.95.02-1.19.11-1.57.15-.6.47-.93,1.08-1.11.46-.14.95-.17,2.38-.17,1.56,0,2.04.02,2.42.09M72.16,53.92c-.22.18-.28.46-.28,1.27s.06,1.14.27,1.32c.22.19.49.22,1.73.22,1.42,0,1.71-.05,1.9-.32.15-.2.19-.49.19-1.25,0-1.43-.02-1.44-2.05-1.44-1.21,0-1.54.04-1.75.2"/>
        <path class="cls-1" d="M86.61,52.42c.84.16,1.24.61,1.36,1.52.03.23.05.69.05,1.38,0,1.37-.14,1.92-.6,2.32-.32.29-.78.43-1.57.46-.29.02-1.01.02-1.54.02-1.29,0-1.95-.02-2.27-.09-.6-.11-.95-.35-1.15-.76-.21-.42-.26-.83-.26-2.07,0-.95.02-1.19.11-1.57.15-.6.47-.93,1.08-1.11.45-.14.95-.17,2.38-.17,1.56,0,2.04.02,2.42.09M82.57,53.92c-.22.18-.28.46-.28,1.27s.06,1.14.27,1.32c.22.19.49.22,1.73.22,1.42,0,1.71-.05,1.9-.32.15-.2.19-.49.19-1.25,0-1.43-.03-1.44-2.05-1.44-1.21,0-1.54.04-1.75.2"/>
        <polygon class="cls-1" points="91.14 52.39 92.79 52.39 92.79 56.66 96.52 56.66 96.52 58.06 91.14 58.06 91.14 52.39"/>
        <rect class="cls-1" x="99.21" y="52.39" width="1.65" height="5.67"/>
        <polygon class="cls-1" points="104.1 52.39 106.72 52.39 110 56.7 109.96 52.39 111.52 52.39 111.52 58.06 108.87 58.06 105.64 53.79 105.68 58.06 104.1 58.06 104.1 52.39"/>
        <path class="cls-1" d="M120.07,54.31c0-.44-.19-.61-.68-.63h-1.6c-.53,0-.85.02-.98.05-.3.08-.43.24-.47.59-.02.15-.04.67-.04,1.04,0,.77.07,1.07.3,1.23.19.13.41.18.84.19h1.19c1.08,0,1.28-.05,1.42-.42.02-.07.02-.14.02-.31v-.14h-2.09v-1.05h3.69v.78c0,.94-.03,1.27-.14,1.57-.19.53-.57.78-1.25.86-.17.02-.67.02-2.26.02-1.24,0-1.72-.02-2.06-.1-.59-.14-.94-.4-1.13-.87-.16-.38-.2-.78-.2-1.83,0-1.22.07-1.7.28-2.1.24-.44.62-.67,1.32-.77.37-.05,1.03-.08,2.06-.08,1.48,0,1.95.03,2.29.11.84.22,1.1.66,1.1,1.85h-1.62.01Z"/>
        <path class="cls-1" d="M131.08,52.39h2.21l2.96,5.67h-1.8l-.54-1.01h-3.49l-.52,1.01h-1.87l3.05-5.67h0ZM133.33,55.87l-1.17-2.26-1.15,2.26h2.32,0Z"/>
        <polygon class="cls-1" points="138.83 52.39 141.45 52.39 144.73 56.7 144.69 52.39 146.25 52.39 146.25 58.06 143.6 58.06 140.37 53.79 140.41 58.06 138.83 58.06 138.83 52.39"/>
        <path class="cls-1" d="M149.48,52.39h4.68c1.14,0,1.68.14,2.05.53.3.31.42.66.48,1.39.02.26.03.65.03.93,0,.51-.03,1.1-.08,1.42-.09.68-.54,1.21-1.14,1.33-.31.07-.55.08-1.13.08h-4.9v-5.67h.01ZM153.89,56.71c.45,0,.48,0,.67-.07.4-.13.5-.42.5-1.4,0-1.19-.2-1.44-1.14-1.44h-2.79v2.91h2.76Z"/>
        <polygon class="cls-1" points="163.72 52.39 165.37 52.39 165.37 54.49 169.12 54.49 169.12 52.39 170.76 52.39 170.76 58.06 169.12 58.06 169.12 55.89 165.37 55.89 165.37 58.06 163.72 58.06 163.72 52.39"/>
        <polygon class="cls-1" points="180 52.39 180 53.67 175.62 53.67 175.62 54.65 179.75 54.65 179.75 55.77 175.62 55.77 175.62 56.78 180.05 56.78 180.05 58.06 174 58.06 174 52.39 180 52.39"/>
        <path class="cls-1" d="M185.79,52.39h2.21l2.96,5.67h-1.8l-.54-1.01h-3.49l-.52,1.01h-1.87l3.04-5.67h0ZM188.04,55.87l-1.17-2.26-1.15,2.26h2.32,0Z"/>
        <polygon class="cls-1" points="194.81 53.79 192.4 53.79 192.4 52.39 198.87 52.39 198.87 53.79 196.46 53.79 196.46 58.06 194.81 58.06 194.81 53.79"/>
        <rect class="cls-1" x="201.74" y="52.39" width="1.65" height="5.67"/>
        <polygon class="cls-1" points="206.63 52.39 209.25 52.39 212.53 56.7 212.49 52.39 214.05 52.39 214.05 58.06 211.41 58.06 208.17 53.79 208.21 58.06 206.63 58.06 206.63 52.39"/>
        <path class="cls-1" d="M222.6,54.31c0-.44-.19-.61-.68-.63h-1.6c-.53,0-.85.02-.98.05-.3.08-.43.24-.47.59-.02.15-.04.67-.04,1.04,0,.77.07,1.07.3,1.23.19.13.41.18.84.19h1.19c1.08,0,1.28-.05,1.42-.42.02-.07.02-.14.02-.31v-.14h-2.09v-1.05h3.69v.78c0,.94-.03,1.27-.14,1.57-.19.53-.57.78-1.25.86-.17.02-.67.02-2.26.02-1.24,0-1.72-.02-2.06-.1-.59-.14-.94-.4-1.13-.87-.16-.38-.2-.78-.2-1.83,0-1.22.07-1.7.28-2.1.24-.44.62-.67,1.32-.77.37-.05,1.03-.08,2.06-.08,1.48,0,1.95.03,2.29.11.84.22,1.1.66,1.1,1.85h-1.62,0Z"/>
      </g>
      <g>
        <polygon class="cls-1" points="23.46 39.94 22.25 38.08 21.73 38.45 22.93 40.31 23.46 39.94"/>
        <path class="cls-1" d="M19.42,64.84c6.08-1.6,7.85-6.21,7.59-10.75-.03-.4-.06-.83-.11-1.29-.02-.15-.04-.31-.06-.46-.51-3.65-1.79-6.73-1.98-7.19,0-.02-.02-.04-.02-.05-1.16-2.33-2.91-4.3-5.54-5.11-.3-.09-.38-.49-.12-.69l5.16-3.99-2.63-3.52s3.69-.02,4.66,3.43c.25.87.25,1.79.08,2.68-.2,1.04-.44,3.16.35,5.14.06.13.11.26.18.4.28.61,1.22,2.69,2,5.19.52,1.7.97,3.6,1.1,5.37v.04c1.37,15.31-15.73,15.39-16.08,15.39,2.79.82,5.87.77,8.61-.23.57-.02,1.09-.3,1.62-.51,2.59-1.14,4.98-2.89,6.59-5.26l.09-.02c4.68-6.59,4.57-15.99.26-22.73h-.03c-2.36-4.05-5.74-7.52-7.32-12.01-1.74-4.56-1.61-9.66-.03-14.25-2.09,1.63-3.78,3.71-5.25,5.89-2.62,3.96-4.03,8.89-3.09,13.62.57,3.27,2.32,6.13,3.83,9.03.94,1.77,1.83,3.57,2.72,5.36,1.23,2.29,1.85,4.94,1.61,7.53-.21,2.12-1.69,3.95-3.64,4.75l-.11.12c-.8.19-1.6.38-2.38.63-1.22.03-2.44.24-3.66.11-.72-.11-1.38-.48-2.11-.56-1.71-.93-3.45-1.86-4.88-3.21-4.11-3.78-6.04-9.39-6.39-14.85h-.19c-.55,3.9-.19,7.93.98,11.71,2.4,7.7,10.38,12.34,18.19,10.29ZM17.88,36.08c-.11-.43-.04-.89.18-1.28l.17-.29c.61,1.23,1.64,2.06,2.05,3.13l-1.68,1.33h0s-.72-2.89-.72-2.89Z"/>
        <path class="cls-1" d="M19.91,67.05l.17.54h0c3.99-1.26,6.7-3.56,8.05-6.83,3.14-7.6-2.04-17.71-2.26-18.14l-.51.26c.06.1,5.28,10.3,2.24,17.66-1.28,3.1-3.87,5.3-7.69,6.51Z"/>
        <path class="cls-1" d="M31.06,33.21c.51.73,1.01,1.46,1.44,2.24,1.58,2.78,2.82,5.79,3.84,8.82.16,1.19.59,2.33.77,3.53.91,4.24,1.02,8.59.82,12.9.08,0,.23-.03.31-.03v-.13c3.38-3.42,5.83-8.02,5.68-12.93-.29-5.37-2.33-10.54-4.84-15.23-.86-1.59-1.62-3.28-2.59-4.8-.75-1.35-1.35-2.77-1.86-4.22s-.93-2.93-1.32-4.42c-.14-1.86-.41-3.74-.3-5.62-.04-4.69,1.53-9.21,3.69-13.32-2.97,1.99-5.55,4.58-7.52,7.57l-.02-.02c-4.6,6.98-4.34,16.62.37,23.48.49.74,1.02,1.46,1.53,2.18Z"/>
        <path class="cls-1" d="M5.91,52.86c.03-.12.11-.22.22-.28l1.44-.81-1.55-.6c-.24-.09-.36-.36-.27-.6.04-.11.12-.19.21-.24.12-.07.26-.08.4-.03l2.27.88,2.68-1.51-2.68-1.51-2.27.88c-.13.05-.28.04-.4-.03-.09-.05-.17-.14-.21-.24-.09-.24.03-.51.27-.6l1.55-.6-1.44-.81c-.11-.06-.19-.17-.22-.28-.03-.12-.02-.24.04-.36.06-.11.17-.19.28-.22.11-.03.24-.02.35.04l1.44.81-.3-1.63c-.05-.25.12-.5.38-.54.11-.02.22,0,.31.05.12.06.21.18.23.32l.44,2.39,2.72,1.52v-3.11l-1.87-1.55c-.11-.09-.17-.22-.17-.36,0-.1.04-.21.11-.3.17-.2.46-.22.66-.06l1.28,1.06v-1.65c0-.13.05-.25.14-.33.08-.09.2-.14.33-.14s.25.05.33.14c.08.08.14.2.14.33v1.65l1.28-1.06c.2-.16.49-.13.66.06.07.09.11.19.11.3,0,.14-.06.27-.17.36l-1.87,1.55v3.11l2.72-1.52.44-2.39c.03-.14.11-.26.23-.32.09-.05.2-.07.31-.05.25.05.42.29.38.54l-.3,1.63,1.44-.81s.04-.02.07-.03h.02s-.01-.02-.02-.03c-.83-1.28-1.75-2.5-2.58-3.73-.47-1.09-1.15-2.09-1.58-3.2-.75-1.63-1.18-3.37-1.7-5.07-.17-1.71-.56-3.42-.49-5.16,0-3.03.83-6,2.28-8.65h0s-.01-.01-.02,0c-2.83,1.39-4.81,4.08-6.4,6.71h-.03c-2.21,3.62-3.26,7.83-3.83,11.99-.46,4.79-.22,10.03,2.19,14.28,0-.06,0-.12.01-.18h.01Z"/>
        <path class="cls-1" d="M46.77,52.48c-.32,1.17-1.04,2.17-1.46,3.29-.61.71-1.1,1.51-1.67,2.25-1.68,2.22-3.69,4.18-5.86,5.93l-.04.1c-2.73,1.96-5.69,3.54-8.82,4.74-2.9.8-5.8,1.75-8.84,1.87-1.36.15-2.74-.11-4.08.19,2.74,1.15,5.69,1.79,8.65,1.97,1.3.05,2.61.1,3.89-.22.53.06,1.06-.03,1.58-.12,2.51-.47,5.03-1.18,7.27-2.46h.12c3.2-1.65,6.14-3.93,8.31-6.81l.15-.08c5-6.18,6.9-14.67,5.11-22.4h-.02c-1.07-4.58-3.27-9-6.67-12.28,3.52,7.38,5.11,16.14,2.38,24.03Z"/>
        <path class="cls-1" d="M18.51,48.18c.24.09.36.36.27.6-.04.11-.12.19-.21.24-.12.06-.26.08-.4.03l-2.27-.88-2.69,1.51,2.69,1.51,2.27-.88c.14-.05.28-.04.4.03.09.05.17.13.21.24.09.24-.03.51-.27.6l-1.54.6,1.44.81c.11.06.19.17.22.28.03.12.02.24-.04.35s-.16.19-.28.22c-.12.03-.24.02-.35-.04l-1.44-.81.3,1.63c.04.26-.12.5-.38.54-.11.02-.22,0-.31-.05-.12-.07-.21-.18-.23-.32l-.44-2.39-2.72-1.52v3.11l1.87,1.55c.11.09.17.22.17.36,0,.1-.03.21-.11.3-.16.2-.46.23-.66.06l-1.28-1.06v1.65c0,.13-.05.24-.14.33-.08.08-.2.14-.33.14s-.25-.05-.33-.14c-.09-.09-.14-.2-.14-.33v-1.65l-1.28,1.06c-.2.17-.49.14-.66-.06-.07-.09-.11-.19-.11-.3,0-.13.06-.27.17-.36l1.87-1.55v-3.11l-2.72,1.52-.44,2.39c-.03.14-.11.26-.23.32-.09.05-.2.07-.31.05-.25-.04-.42-.29-.38-.54l.3-1.63-1.44.81c-.11.06-.24.08-.35.04-.04,0-.08-.03-.12-.06-.01,0-.02,0-.03,0,0,.02.02.03.03.05.34.56.72,1.11,1.15,1.63,1.27,1.48,2.74,2.84,4.53,3.66v.08c1.47.69,3.12.97,4.73.64,2.88-.88,4.42-4.11,4.18-6.96-.22-2.12-1.09-4.01-2.18-5.79-.03.04-.07.07-.11.09h.02l-1.44.81s1.54.6,1.54.6Z"/>
        <polygon class="cls-1" points="25.5 38.51 24.29 36.65 23.77 37.01 24.98 38.87 25.5 38.51"/>
        <polygon class="cls-1" points="24.82 38.99 23.61 37.12 23.09 37.49 24.3 39.35 24.82 38.99"/>
        <polygon class="cls-1" points="24.14 39.46 22.93 37.6 22.41 37.96 23.62 39.83 24.14 39.46"/>
        <polygon class="cls-1" points="21.05 38.92 22.26 40.78 22.78 40.42 21.57 38.56 21.05 38.92"/>
      </g>
    </g>
  </g>
</svg>