<?xml version="1.0" encoding="UTF-8"?>
<svg id="Layer_2" xmlns="http://www.w3.org/2000/svg" xmlns:xlink="http://www.w3.org/1999/xlink" viewBox="0 0 218.13 60.79">
  <defs>
    <style>
      .cls-1 {
        fill: none;
      }

      .cls-2 {
        fill: #ee3125;
      }

      .cls-3 {
        fill: gray;
      }

      .cls-4 {
        fill: url(#linear-gradient-3);
      }

      .cls-5 {
        fill: url(#linear-gradient-2);
      }

      .cls-6 {
        fill: url(#linear-gradient);
      }

      .cls-7 {
        clip-path: url(#clippath-1);
      }

      .cls-8 {
        clip-path: url(#clippath-2);
      }

      .cls-9 {
        fill: #fff;
      }

      .cls-10 {
        clip-path: url(#clippath);
      }

      .cls-11 {
        fill: #4d4d4e;
      }
    </style>
    <clipPath id="clippath">
      <path class="cls-1" d="M24.34,6.31c-3.84,5.82-3.62,13.86.3,19.58.41.62.85,1.21,1.28,1.82.43.61.84,1.22,1.2,1.87,1.32,2.32,2.36,4.83,3.2,7.36.13,1,.5,1.95.65,2.94.76,3.53.85,7.17.68,10.76.06,0,.19-.02.26-.03v-.11c2.82-2.85,4.87-6.69,4.73-10.79-.24-4.48-1.94-8.8-4.04-12.71-.72-1.32-1.35-2.74-2.16-4.01-.62-1.13-1.13-2.31-1.55-3.52-.43-1.21-.78-2.45-1.1-3.69-.12-1.55-.34-3.12-.25-4.69-.03-3.91,1.28-7.69,3.08-11.11-2.48,1.66-4.63,3.82-6.27,6.31"/>
    </clipPath>
    <linearGradient id="linear-gradient" x1="79.48" y1="-250.32" x2="80.31" y2="-250.32" gradientTransform="translate(-4450.29 -13999.32) scale(56.03 -56.03)" gradientUnits="userSpaceOnUse">
      <stop offset="0" stop-color="#1282c6"/>
      <stop offset=".51" stop-color="#29aae2"/>
      <stop offset="1" stop-color="#0d71ba"/>
    </linearGradient>
    <clipPath id="clippath-1">
      <path class="cls-1" d="M6.31,22.36c-1.84,3.01-2.72,6.52-3.2,9.99-.39,4-.18,8.37,1.83,11.91,0-.05,0-.1.01-.15.03-.1.09-.18.18-.23l1.2-.67-1.29-.5c-.2-.08-.3-.3-.22-.5.03-.09.1-.16.17-.2.1-.06.22-.07.33-.02l1.89.73,2.24-1.26-2.24-1.26-1.89.73c-.11.04-.23.03-.33-.02-.08-.04-.14-.11-.17-.2-.08-.2.02-.43.22-.5l1.29-.5-1.2-.67c-.1-.05-.16-.14-.18-.23-.03-.1-.02-.2.03-.3.05-.09.14-.16.24-.18.1-.03.2-.02.29.04l1.2.67-.25-1.36c-.04-.21.1-.41.31-.45.09-.02.19,0,.26.04.1.05.17.15.19.27l.36,1.99,2.27,1.27v-2.6l-1.56-1.29c-.09-.08-.14-.19-.14-.3,0-.09.03-.18.09-.25.14-.16.38-.19.55-.05l1.06.88v-1.37c0-.11.04-.21.11-.27.07-.07.17-.11.27-.11s.21.04.28.11c.07.07.11.17.11.27v1.37l1.07-.88c.16-.14.41-.11.55.05.06.07.09.16.09.25,0,.11-.05.22-.14.3l-1.56,1.29v2.6l2.27-1.27.36-1.99c.02-.12.09-.22.19-.27.08-.04.17-.06.26-.04.21.04.35.24.31.45l-.25,1.36,1.2-.67s.05-.03.08-.03c-.7-1.07-1.47-2.1-2.17-3.14-.39-.91-.96-1.74-1.32-2.67-.62-1.36-.98-2.81-1.42-4.23-.15-1.43-.47-2.85-.41-4.3,0-2.53.69-5.02,1.91-7.22-2.37,1.16-4.02,3.4-5.35,5.61"/>
    </clipPath>
    <linearGradient id="linear-gradient-2" x1="73.26" y1="-279.31" x2="74.1" y2="-279.31" gradientTransform="translate(-1061.2 -4026.62) scale(14.53 -14.53)" xlink:href="#linear-gradient"/>
    <clipPath id="clippath-2">
      <path class="cls-1" d="M15.37,39.03l-1.2.67,1.29.5c.2.08.3.3.22.5-.03.09-.1.16-.17.2-.1.05-.22.07-.33.02l-1.89-.73-2.24,1.26,2.24,1.26,1.89-.73c.11-.04.23-.03.33.02.08.04.14.11.17.2.08.2-.02.43-.22.5l-1.29.5,1.2.67c.09.05.16.14.18.23.03.1.02.2-.04.3-.05.1-.14.16-.23.18-.1.03-.2.02-.3-.04l-1.2-.67.25,1.36c.04.21-.1.42-.31.45-.09.02-.18,0-.26-.04-.1-.06-.17-.15-.19-.27l-.36-2-2.27-1.27v2.6l1.56,1.29c.09.08.14.19.14.3,0,.09-.03.17-.09.25-.14.17-.38.19-.55.05l-1.07-.88v1.38c0,.11-.04.2-.11.27-.07.07-.17.11-.28.11s-.21-.05-.27-.11c-.07-.07-.11-.17-.11-.27v-1.38l-1.06.88c-.17.14-.41.11-.55-.05-.06-.07-.09-.16-.09-.25,0-.11.05-.22.14-.3l1.56-1.29v-2.6l-2.27,1.27-.36,2c-.02.12-.09.21-.19.27-.07.04-.17.06-.26.04-.21-.04-.35-.24-.31-.45l.25-1.36-1.2.67c-.09.05-.2.06-.29.04-.04-.01-.09-.03-.12-.06.29.48.62.95.98,1.4,1.06,1.23,2.28,2.37,3.78,3.05v.07c1.23.58,2.6.81,3.95.53,2.4-.73,3.68-3.43,3.48-5.81-.18-1.77-.91-3.34-1.82-4.83-.02.03-.06.06-.1.08"/>
    </clipPath>
    <linearGradient id="linear-gradient-3" x1="73.33" y1="-278.93" x2="74.17" y2="-278.93" gradientTransform="translate(-1068.42 -4038.89) scale(14.64 -14.64)" xlink:href="#linear-gradient"/>
  </defs>
  <g id="Layer_1-2" data-name="Layer_1">
    <g>
      <g class="cls-10">
        <rect class="cls-6" x="3.13" y="16.64" width="50.99" height="17.37" transform="translate(2.69 53.4) rotate(-88.75)"/>
      </g>
      <path class="cls-11" d="M25.99,33.95c-1.97-3.38-4.79-6.27-6.11-10.02-1.45-3.8-1.34-8.06-.03-11.89-1.74,1.36-3.15,3.09-4.38,4.92-2.18,3.31-3.36,7.42-2.58,11.36.48,2.73,1.93,5.11,3.19,7.53.78,1.48,1.53,2.98,2.27,4.48,1.02,1.91,1.54,4.12,1.34,6.28-.18,1.77-1.41,3.3-3.04,3.96l-.09.1c-.66.16-1.33.32-1.99.52-1.02.02-2.04.2-3.05.09-.6-.1-1.15-.4-1.76-.47-1.43-.78-2.88-1.55-4.07-2.68-3.43-3.15-5.04-7.84-5.33-12.39-.1,0-.06,0-.16,0-.46,3.25-.16,6.62.82,9.77,2.01,6.42,8.66,10.3,15.17,8.58,5.07-1.34,6.55-5.18,6.33-8.97-.02-.34-.05-.7-.09-1.08-.01-.13-.03-.26-.05-.38-.42-3.04-1.49-5.62-1.65-6,0-.02-.02-.03-.02-.04,0,0,0,0,0,0h0c-.97-1.94-2.42-3.59-4.62-4.26-.25-.08-.31-.41-.1-.57l4.3-3.33-2.19-2.93s3.08-.02,3.89,2.86c.21.73.21,1.49.07,2.23-.17.86-.37,2.63.29,4.29.05.11.1.22.15.33.24.51,1.02,2.24,1.67,4.33.44,1.42.81,3,.92,4.48,0,.01,0,.02,0,.03,1.15,12.77-13.12,12.84-13.41,12.84,2.33.68,4.89.64,7.18-.19.48-.02.91-.25,1.35-.42,2.16-.95,4.16-2.41,5.5-4.38h.07c3.91-5.51,3.81-13.35.22-18.98M15.53,32.52l-.6-2.41c-.09-.36-.04-.75.15-1.07l.14-.25c.51,1.03,1.37,1.72,1.71,2.61l-1.41,1.11Z"/>
      <g class="cls-7">
        <rect class="cls-5" x="2.72" y="16.75" width="12.34" height="27.51"/>
      </g>
      <g class="cls-8">
        <rect class="cls-4" x="5.1" y="38.95" width="12.39" height="10.91"/>
      </g>
      <path class="cls-2" d="M42.61,33.99c-.89-3.82-2.73-7.5-5.56-10.25,2.94,6.16,4.26,13.47,1.98,20.05-.27.98-.87,1.81-1.22,2.75-.51.59-.92,1.26-1.39,1.88-1.4,1.85-3.08,3.49-4.89,4.95l-.04.08c-2.27,1.63-4.75,2.95-7.36,3.95-2.42.67-4.84,1.46-7.37,1.56-1.13.12-2.29-.1-3.41.16,2.29.96,4.74,1.49,7.22,1.64,1.08.04,2.18.08,3.24-.18.44.05.88-.03,1.32-.1,2.1-.4,4.2-.99,6.06-2.05h.1c2.67-1.38,5.12-3.27,6.93-5.68l.12-.07c4.17-5.15,5.76-12.23,4.27-18.68"/>
      <polygon class="cls-3" points="19.14 31.38 20.15 32.94 19.72 33.24 18.71 31.69 19.14 31.38"/>
      <polygon class="cls-3" points="18.01 32.18 19.02 33.73 18.58 34.04 17.57 32.49 18.01 32.18"/>
      <polygon class="cls-3" points="19.71 30.98 20.72 32.54 20.28 32.84 19.27 31.29 19.71 30.98"/>
      <polygon class="cls-3" points="21.28 32.14 20.85 32.44 19.84 30.89 20.28 30.59 21.28 32.14"/>
      <polygon class="cls-3" points="18.58 31.78 19.58 33.33 19.15 33.64 18.14 32.09 18.58 31.78"/>
      <path class="cls-3" d="M16.77,56.4l-.14-.45c3.19-1.01,5.35-2.84,6.42-5.43,2.54-6.14-1.82-14.65-1.87-14.73l.42-.22c.19.36,4.51,8.79,1.89,15.14-1.13,2.73-3.39,4.65-6.71,5.71"/>
    </g>
    <g>
      <rect class="cls-9" x="54.71" y="21.75" width="4.45" height="16.48"/>
      <polygon class="cls-9" points="78.46 21.75 78.46 35.06 69.44 21.75 61.82 21.75 61.82 38.24 66.27 38.24 66.27 24.98 75.21 38.24 82.9 38.24 82.9 21.75 78.46 21.75"/>
      <polygon class="cls-9" points="84.78 21.75 84.78 26.2 91.67 26.2 91.67 38.24 96.72 38.24 96.72 26.2 103.58 26.2 103.58 21.75 84.78 21.75"/>
      <polygon class="cls-9" points="122.83 25.56 122.83 21.75 105.94 21.75 105.94 38.24 122.83 38.24 122.83 34.43 110.38 34.43 110.38 31.56 122.12 31.56 122.12 28.26 110.38 28.26 110.38 25.56 122.83 25.56"/>
      <path class="cls-9" d="M130.41,26.15c.48-.39,1.09-.58,1.82-.58h6.86c.41,0,.76.15,1.07.46.31.3.46.66.46,1.07h4.45v-1.53c0-1.05-.48-1.95-1.45-2.69-.97-.75-2.12-1.12-3.46-1.12h-10.46c-1.24,0-2.29.37-3.15,1.12-.86.74-1.3,1.64-1.3,2.69v8.88c0,1.05.44,1.95,1.32,2.69.88.74,1.92,1.11,3.12,1.11h10.46c1.37,0,2.53-.37,3.48-1.12.95-.75,1.42-1.64,1.42-2.69v-5.66h-10.36v3.3h5.92c0,.64-.16,1.2-.47,1.66-.31.47-.69.7-1.13.7h-6.78c-.69,0-1.29-.23-1.79-.7-.5-.46-.75-1.02-.75-1.66v-4.43c0-.61.24-1.11.72-1.49"/>
      <path class="cls-9" d="M166.11,30.43c.39-.48.59-1.05.59-1.71v-2.79c0-1.15-.44-2.13-1.31-2.95-.87-.82-1.92-1.23-3.14-1.23h-14.48v16.53h4.44v-4.19h8.64c.42,0,.76.34,1.02,1.02.25.68.38,1.74.38,3.17h4.45c0-2.17-.12-3.75-.36-4.74-.24-.99-.84-1.55-1.8-1.66.66-.49,1.18-.97,1.57-1.46M161.67,29.28c-.39.42-.85.63-1.4.63h-8.05v-3.96h8.05c.54,0,1.01.18,1.4.53.39.35.58.78.58,1.29,0,.59-.19,1.09-.58,1.51"/>
      <rect class="cls-9" x="168.85" y="21.75" width="4.45" height="16.48"/>
      <polygon class="cls-9" points="175.51 21.75 175.51 26.2 182.39 26.2 182.39 38.24 187.45 38.24 187.45 26.2 194.3 26.2 194.3 21.75 175.51 21.75"/>
      <polygon class="cls-9" points="212.39 21.75 206.8 28.56 201.24 21.75 195.5 21.75 204.59 32.9 204.59 38.24 209.03 38.24 209.03 32.87 218.13 21.75 212.39 21.75"/>
      <path class="cls-9" d="M61.11,47.28c0,.82-.03,1.1-.15,1.36-.21.49-.65.71-1.49.77-.33.03-.98.04-2.06.04-1.56,0-2.06-.08-2.5-.37-.54-.36-.69-.95-.69-2.63,0-1.5.16-2.03.73-2.37.49-.3,1.01-.37,2.52-.37,2.02,0,2.46.04,2.92.28.44.23.64.73.64,1.56v.19h-1.57c-.03-.62-.15-.67-1.58-.67-1.35,0-1.59.03-1.8.22-.19.19-.24.42-.24,1.33,0,1.36.12,1.46,1.71,1.46,1.23,0,1.4,0,1.63-.11.24-.1.32-.28.32-.69h1.6Z"/>
      <path class="cls-9" d="M70.11,43.77c.84.16,1.24.61,1.36,1.52.03.23.05.69.05,1.38,0,1.37-.14,1.92-.6,2.32-.33.29-.78.43-1.57.46-.29.02-1.01.02-1.54.02-1.29,0-1.95-.02-2.27-.09-.6-.11-.95-.35-1.15-.76-.21-.42-.26-.83-.26-2.07,0-.95.02-1.19.11-1.57.15-.6.47-.93,1.08-1.11.46-.14.95-.17,2.38-.17,1.56,0,2.04.02,2.42.09M66.06,45.27c-.22.18-.28.46-.28,1.27s.06,1.14.27,1.32c.22.19.49.22,1.73.22,1.42,0,1.71-.05,1.9-.32.15-.2.19-.49.19-1.25,0-1.43-.02-1.44-2.05-1.44-1.21,0-1.54.04-1.75.2"/>
      <path class="cls-9" d="M80.52,43.77c.84.16,1.24.61,1.36,1.52.03.23.05.69.05,1.38,0,1.37-.14,1.92-.6,2.32-.32.29-.78.43-1.57.46-.29.02-1.01.02-1.54.02-1.29,0-1.95-.02-2.27-.09-.6-.11-.95-.35-1.15-.76-.21-.42-.26-.83-.26-2.07,0-.95.02-1.19.11-1.57.15-.6.47-.93,1.08-1.11.45-.14.95-.17,2.38-.17,1.56,0,2.04.02,2.42.09M76.47,45.27c-.22.18-.28.46-.28,1.27s.06,1.14.27,1.32c.22.19.49.22,1.73.22,1.42,0,1.71-.05,1.9-.32.15-.2.19-.49.19-1.25,0-1.43-.03-1.44-2.05-1.44-1.21,0-1.54.04-1.75.2"/>
      <polygon class="cls-9" points="85.05 43.74 86.7 43.74 86.7 48.01 90.42 48.01 90.42 49.41 85.05 49.41 85.05 43.74"/>
      <rect class="cls-9" x="93.12" y="43.74" width="1.65" height="5.67"/>
      <polygon class="cls-9" points="98.01 43.74 100.63 43.74 103.91 48.05 103.87 43.74 105.43 43.74 105.43 49.41 102.78 49.41 99.55 45.15 99.59 49.41 98.01 49.41 98.01 43.74"/>
      <path class="cls-9" d="M113.98,45.66c0-.44-.19-.61-.68-.63h-1s-.6,0-.6,0q-.79,0-.98.05c-.3.08-.43.24-.47.59-.02.15-.04.67-.04,1.04,0,.77.07,1.07.3,1.23.19.13.41.18.84.19q.18,0,1.19,0c1.08,0,1.28-.05,1.42-.42.02-.07.02-.14.02-.31v-.14h-2.09v-1.05h3.69v.78c0,.94-.03,1.27-.14,1.57-.19.53-.57.78-1.25.86-.17.02-.67.02-2.26.02-1.24,0-1.72-.02-2.06-.1-.59-.14-.94-.4-1.13-.87-.16-.38-.2-.78-.2-1.83,0-1.22.07-1.7.28-2.1.24-.44.62-.67,1.32-.77.37-.05,1.03-.08,2.06-.08,1.48,0,1.95.03,2.29.11.84.22,1.1.66,1.1,1.85h-1.62Z"/>
      <path class="cls-9" d="M124.98,43.74h2.21l2.96,5.67h-1.8l-.54-1.01h-3.49l-.52,1.01h-1.87l3.05-5.67ZM127.24,47.22l-1.17-2.26-1.15,2.26h2.32Z"/>
      <polygon class="cls-9" points="132.74 43.74 135.36 43.74 138.64 48.05 138.6 43.74 140.16 43.74 140.16 49.41 137.51 49.41 134.28 45.15 134.32 49.41 132.74 49.41 132.74 43.74"/>
      <path class="cls-9" d="M143.39,43.74h4.68c1.14,0,1.68.14,2.05.53.3.31.42.66.48,1.39.02.26.03.65.03.93,0,.51-.03,1.1-.08,1.42-.09.68-.54,1.21-1.14,1.33-.31.07-.55.08-1.13.08h-4.9v-5.67ZM147.8,48.06c.45,0,.48,0,.67-.07.4-.13.5-.42.5-1.4,0-1.19-.2-1.44-1.14-1.44h-2.79v2.91h2.76Z"/>
      <polygon class="cls-9" points="157.63 43.74 159.27 43.74 159.27 45.84 163.02 45.84 163.02 43.74 164.67 43.74 164.67 49.41 163.02 49.41 163.02 47.24 159.27 47.24 159.27 49.41 157.63 49.41 157.63 43.74"/>
      <polygon class="cls-9" points="173.91 43.74 173.91 45.03 169.53 45.03 169.53 46 173.65 46 173.65 47.12 169.53 47.12 169.53 48.13 173.96 48.13 173.96 49.41 167.91 49.41 167.91 43.74 173.91 43.74"/>
      <path class="cls-9" d="M179.7,43.74h2.21l2.96,5.67h-1.8l-.54-1.01h-3.49l-.52,1.01h-1.87l3.04-5.67ZM181.95,47.22l-1.17-2.26-1.15,2.26h2.32Z"/>
      <polygon class="cls-9" points="188.72 45.15 186.31 45.15 186.31 43.74 192.78 43.74 192.78 45.15 190.36 45.15 190.36 49.41 188.72 49.41 188.72 45.15"/>
      <rect class="cls-9" x="195.65" y="43.74" width="1.65" height="5.67"/>
      <polygon class="cls-9" points="200.54 43.74 203.16 43.74 206.44 48.05 206.4 43.74 207.96 43.74 207.96 49.41 205.31 49.41 202.08 45.15 202.12 49.41 200.54 49.41 200.54 43.74"/>
      <path class="cls-9" d="M216.51,45.66c0-.44-.19-.61-.68-.63h-1s-.6,0-.6,0q-.79,0-.98.05c-.3.08-.43.24-.47.59-.02.15-.04.67-.04,1.04,0,.77.07,1.07.3,1.23.19.13.41.18.84.19q.18,0,1.19,0c1.08,0,1.28-.05,1.42-.42.02-.07.02-.14.02-.31v-.14h-2.09v-1.05h3.69v.78c0,.94-.03,1.27-.14,1.57-.19.53-.57.78-1.25.86-.17.02-.67.02-2.26.02-1.24,0-1.72-.02-2.06-.1-.59-.14-.94-.4-1.13-.87-.16-.38-.2-.78-.2-1.83,0-1.22.07-1.7.28-2.1.24-.44.62-.67,1.32-.77.37-.05,1.03-.08,2.06-.08,1.48,0,1.95.03,2.29.11.84.22,1.1.66,1.1,1.85h-1.62Z"/>
    </g>
  </g>
</svg>