<?xml version="1.0" encoding="UTF-8"?>
<svg id="Layer_2" xmlns="http://www.w3.org/2000/svg" xmlns:xlink="http://www.w3.org/1999/xlink" viewBox="0 0 163.91 107.45">
  <defs>
    <style>
      .cls-1 {
        fill: none;
      }

      .cls-2 {
        fill: #ee3125;
      }

      .cls-3 {
        fill: gray;
      }

      .cls-4 {
        fill: url(#linear-gradient-3);
      }

      .cls-5 {
        fill: url(#linear-gradient-2);
      }

      .cls-6 {
        fill: url(#linear-gradient);
      }

      .cls-7 {
        clip-path: url(#clippath-1);
      }

      .cls-8 {
        clip-path: url(#clippath-2);
      }

      .cls-9 {
        fill: #fff;
      }

      .cls-10 {
        clip-path: url(#clippath);
      }

      .cls-11 {
        fill: #4d4d4e;
      }
    </style>
    <clipPath id="clippath">
      <path class="cls-1" d="M85.51,7.57c-4.6,6.98-4.34,16.62.37,23.48.49.74,1.02,1.46,1.53,2.18.51.73,1.01,1.46,1.44,2.24,1.58,2.78,2.82,5.79,3.84,8.82.16,1.19.59,2.33.77,3.53.91,4.24,1.02,8.59.82,12.9.08,0,.23-.03.31-.03v-.13c3.38-3.42,5.83-8.02,5.68-12.93-.29-5.37-2.33-10.54-4.84-15.23-.86-1.59-1.62-3.28-2.59-4.8-.75-1.35-1.35-2.77-1.86-4.22-.51-1.45-.93-2.93-1.32-4.42-.14-1.86-.41-3.74-.3-5.62-.04-4.69,1.53-9.21,3.69-13.32-2.97,1.99-5.55,4.58-7.52,7.57"/>
    </clipPath>
    <linearGradient id="linear-gradient" x1="32.13" y1="-43.06" x2="33.13" y2="-43.06" gradientTransform="translate(-1740.32 -2382.09) scale(56.03 -56.03)" gradientUnits="userSpaceOnUse">
      <stop offset="0" stop-color="#1282c6"/>
      <stop offset=".51" stop-color="#29aae2"/>
      <stop offset="1" stop-color="#0d71ba"/>
    </linearGradient>
    <clipPath id="clippath-1">
      <path class="cls-1" d="M63.89,26.8c-2.21,3.61-3.26,7.82-3.83,11.98-.46,4.79-.22,10.03,2.19,14.28,0-.06,0-.12.01-.18.03-.12.11-.22.22-.28l1.44-.81-1.55-.6c-.24-.09-.36-.36-.27-.6.04-.11.12-.19.21-.24.12-.07.26-.08.4-.03l2.27.88,2.68-1.51-2.68-1.51-2.27.88c-.13.05-.28.04-.4-.03-.09-.05-.17-.14-.21-.24-.09-.24.03-.51.27-.6l1.55-.6-1.44-.81c-.11-.06-.19-.17-.22-.28-.03-.12-.02-.24.04-.36.06-.11.17-.19.28-.22.11-.03.24-.02.35.04l1.44.81-.3-1.63c-.05-.25.12-.5.38-.54.11-.02.22,0,.31.05.12.06.21.18.23.32l.44,2.39,2.72,1.52v-3.11l-1.87-1.55c-.11-.09-.17-.22-.17-.36,0-.1.04-.21.11-.3.17-.2.46-.22.66-.06l1.28,1.06v-1.65c0-.13.05-.25.14-.33.08-.09.2-.14.33-.14s.25.05.33.14c.08.08.14.2.14.33v1.65l1.28-1.06c.2-.16.49-.13.66.06.07.09.11.19.11.3,0,.14-.06.27-.17.36l-1.87,1.55v3.11l2.72-1.52.44-2.39c.03-.14.11-.26.23-.32.09-.05.2-.07.31-.05.25.05.42.29.38.54l-.3,1.63,1.44-.81s.06-.03.09-.04c-.84-1.29-1.76-2.52-2.6-3.76-.47-1.09-1.15-2.09-1.58-3.2-.75-1.63-1.18-3.37-1.7-5.07-.17-1.71-.56-3.42-.49-5.16,0-3.03.83-6.01,2.29-8.66-2.84,1.39-4.82,4.08-6.42,6.72"/>
    </clipPath>
    <linearGradient id="linear-gradient-2" x1="29.74" y1="-56.13" x2="30.74" y2="-56.13" gradientTransform="translate(-372.09 -778.74) scale(14.53 -14.53)" xlink:href="#linear-gradient"/>
    <clipPath id="clippath-2">
      <path class="cls-1" d="M74.76,46.79l-1.44.81,1.54.6c.24.09.36.36.27.6-.04.11-.12.19-.21.24-.12.06-.26.08-.4.03l-2.27-.88-2.69,1.51,2.69,1.51,2.27-.88c.14-.05.28-.04.4.03.09.05.17.13.21.24.09.24-.03.51-.27.6l-1.54.6,1.44.81c.11.06.19.17.22.28.03.12.02.24-.04.35-.06.11-.16.19-.28.22-.12.03-.24.02-.35-.04l-1.44-.81.3,1.63c.04.26-.12.5-.38.54-.11.02-.22,0-.31-.05-.12-.07-.21-.18-.23-.32l-.44-2.39-2.72-1.52v3.11l1.87,1.55c.11.09.17.22.17.36,0,.1-.03.21-.11.3-.16.2-.46.23-.66.06l-1.28-1.06v1.65c0,.13-.05.24-.14.33-.08.08-.2.14-.33.14s-.25-.05-.33-.14c-.09-.09-.14-.2-.14-.33v-1.65l-1.28,1.06c-.2.17-.49.14-.66-.06-.07-.09-.11-.19-.11-.3,0-.13.06-.27.17-.36l1.87-1.55v-3.11l-2.72,1.52-.44,2.39c-.03.14-.11.26-.23.32-.09.05-.2.07-.31.05-.25-.04-.42-.29-.38-.54l.3-1.63-1.44.81c-.11.06-.24.08-.35.04-.05-.01-.1-.04-.15-.07.35.58.74,1.14,1.18,1.68,1.27,1.48,2.74,2.84,4.53,3.66v.08c1.47.69,3.12.97,4.73.64,2.88-.88,4.42-4.11,4.18-6.96-.22-2.12-1.09-4.01-2.18-5.79-.03.04-.07.07-.11.09"/>
    </clipPath>
    <linearGradient id="linear-gradient-3" x1="29.78" y1="-56.04" x2="30.78" y2="-56.04" gradientTransform="translate(-373.51 -767.22) scale(14.64 -14.64)" xlink:href="#linear-gradient"/>
  </defs>
  <g id="Layer_1-2" data-name="Layer_1">
    <rect class="cls-9" x=".49" y="79.73" width="4.45" height="16.48"/>
    <polygon class="cls-9" points="24.24 79.73 24.24 93.04 15.22 79.73 7.6 79.73 7.6 96.21 12.05 96.21 12.05 82.96 20.99 96.21 28.68 96.21 28.68 79.73 24.24 79.73"/>
    <polygon class="cls-9" points="30.56 79.73 30.56 84.18 37.45 84.18 37.45 96.21 42.5 96.21 42.5 84.18 49.36 84.18 49.36 79.73 30.56 79.73"/>
    <polygon class="cls-9" points="68.61 83.54 68.61 79.73 51.72 79.73 51.72 96.21 68.61 96.21 68.61 92.41 56.17 92.41 56.17 89.53 67.9 89.53 67.9 86.23 56.17 86.23 56.17 83.54 68.61 83.54"/>
    <path class="cls-9" d="M76.19,84.12c.48-.39,1.09-.58,1.82-.58h6.86c.41,0,.76.15,1.07.46.31.3.46.66.46,1.07h4.45v-1.53c0-1.05-.48-1.95-1.45-2.69-.97-.75-2.12-1.12-3.46-1.12h-10.46c-1.24,0-2.29.37-3.15,1.12-.86.74-1.3,1.64-1.3,2.69v8.88c0,1.05.44,1.95,1.32,2.69.88.74,1.92,1.11,3.12,1.11h10.46c1.37,0,2.53-.37,3.48-1.12.95-.75,1.42-1.64,1.42-2.69v-5.66h-10.36v3.3h5.92c0,.64-.16,1.2-.47,1.66-.31.47-.69.7-1.13.7h-6.78c-.69,0-1.29-.23-1.79-.7-.5-.46-.75-1.02-.75-1.66v-4.43c0-.61.24-1.11.72-1.49"/>
    <path class="cls-9" d="M111.89,88.41c.39-.48.59-1.05.59-1.71v-2.79c0-1.15-.44-2.13-1.31-2.95-.87-.82-1.92-1.23-3.14-1.23h-14.48v16.53h4.44v-4.19h8.64c.42,0,.76.34,1.02,1.02.25.68.38,1.74.38,3.17h4.45c0-2.17-.12-3.75-.36-4.74-.24-.99-.84-1.55-1.8-1.66.66-.49,1.18-.97,1.57-1.46M107.45,87.25c-.39.42-.85.63-1.4.63h-8.05v-3.96h8.05c.54,0,1.01.18,1.4.53.39.35.58.78.58,1.29,0,.59-.19,1.09-.58,1.51"/>
    <rect class="cls-9" x="114.63" y="79.73" width="4.45" height="16.48"/>
    <polygon class="cls-9" points="121.29 79.73 121.29 84.18 128.17 84.18 128.17 96.21 133.23 96.21 133.23 84.18 140.09 84.18 140.09 79.73 121.29 79.73"/>
    <polygon class="cls-9" points="158.17 79.73 152.58 86.54 147.02 79.73 141.28 79.73 150.37 90.87 150.37 96.21 154.82 96.21 154.82 90.85 163.91 79.73 158.17 79.73"/>
    <g class="cls-10">
      <rect class="cls-6" x="60.09" y="19.95" width="61.13" height="20.82" transform="translate(58.32 120.33) rotate(-88.75)"/>
    </g>
    <path class="cls-11" d="M87.49,40.7c-2.36-4.05-5.74-7.52-7.32-12.01-1.74-4.56-1.61-9.66-.03-14.25-2.09,1.63-3.78,3.71-5.25,5.89-2.62,3.96-4.03,8.89-3.09,13.62.57,3.27,2.32,6.13,3.83,9.03.94,1.77,1.83,3.57,2.72,5.36,1.23,2.29,1.85,4.94,1.61,7.53-.21,2.12-1.69,3.95-3.64,4.75l-.11.12c-.8.19-1.6.38-2.38.63-1.22.03-2.44.24-3.66.11-.72-.11-1.38-.48-2.11-.56-1.71-.93-3.45-1.86-4.88-3.21-4.11-3.78-6.04-9.39-6.39-14.85-.12,0-.08,0-.19,0-.55,3.9-.19,7.93.98,11.71,2.4,7.7,10.38,12.34,18.19,10.29,6.08-1.6,7.85-6.21,7.59-10.75-.03-.4-.06-.83-.11-1.29-.02-.15-.04-.31-.06-.46-.51-3.65-1.79-6.73-1.98-7.19,0-.02-.02-.04-.02-.05,0,0,0,0,0,0h0c-1.16-2.33-2.91-4.3-5.54-5.11-.3-.09-.38-.49-.12-.69l5.16-3.99-2.63-3.52s3.69-.02,4.66,3.43c.25.87.25,1.79.08,2.68-.2,1.04-.44,3.16.35,5.14.06.13.11.26.18.4.28.61,1.22,2.69,2,5.19.52,1.7.97,3.6,1.1,5.37,0,.01,0,.03,0,.04,1.37,15.31-15.73,15.39-16.08,15.39,2.79.82,5.87.77,8.61-.23.57-.02,1.09-.3,1.62-.51,2.59-1.14,4.98-2.89,6.59-5.26l.09-.02c4.68-6.59,4.57-15.99.26-22.73M74.95,38.98l-.72-2.88c-.11-.43-.04-.89.18-1.28l.17-.29c.61,1.23,1.64,2.06,2.05,3.13l-1.68,1.33Z"/>
    <g class="cls-7">
      <rect class="cls-5" x="59.6" y="20.08" width="14.8" height="32.98"/>
    </g>
    <g class="cls-8">
      <rect class="cls-4" x="62.44" y="46.69" width="14.86" height="13.08"/>
    </g>
    <path class="cls-2" d="M107.41,40.75c-1.07-4.58-3.27-9-6.67-12.28,3.52,7.38,5.11,16.14,2.38,24.03-.32,1.17-1.04,2.17-1.46,3.29-.61.71-1.1,1.51-1.67,2.25-1.68,2.22-3.69,4.18-5.86,5.93l-.04.1c-2.73,1.96-5.69,3.54-8.82,4.74-2.9.8-5.8,1.75-8.84,1.87-1.36.15-2.74-.11-4.08.19,2.74,1.15,5.69,1.79,8.65,1.97,1.3.05,2.61.1,3.89-.22.53.06,1.06-.03,1.58-.12,2.51-.47,5.03-1.18,7.27-2.46h.12c3.2-1.65,6.14-3.93,8.31-6.81l.15-.08c5-6.18,6.9-14.67,5.11-22.4"/>
    <polygon class="cls-3" points="79.28 37.62 80.49 39.48 79.97 39.85 78.76 37.98 79.28 37.62"/>
    <polygon class="cls-3" points="77.92 38.58 79.13 40.44 78.61 40.8 77.4 38.94 77.92 38.58"/>
    <polygon class="cls-3" points="79.96 37.14 81.17 39.01 80.65 39.37 79.44 37.51 79.96 37.14"/>
    <polygon class="cls-3" points="81.85 38.53 81.33 38.89 80.12 37.03 80.64 36.67 81.85 38.53"/>
    <polygon class="cls-3" points="78.6 38.1 79.81 39.96 79.28 40.33 78.08 38.47 78.6 38.1"/>
    <path class="cls-3" d="M76.43,67.61l-.17-.54c3.82-1.21,6.41-3.41,7.69-6.51,3.04-7.36-2.18-17.56-2.24-17.66l.51-.26c.22.43,5.4,10.54,2.26,18.14-1.35,3.27-4.06,5.57-8.05,6.84"/>
    <path class="cls-9" d="M6.89,105.26c0,.82-.03,1.1-.15,1.36-.21.49-.65.71-1.49.77-.33.03-.98.04-2.06.04-1.56,0-2.06-.08-2.5-.37-.54-.36-.69-.95-.69-2.63,0-1.5.16-2.03.73-2.37.49-.3,1.01-.37,2.52-.37,2.02,0,2.46.04,2.92.28.44.23.64.73.64,1.56v.19h-1.57c-.03-.62-.15-.67-1.58-.67-1.35,0-1.59.03-1.8.22-.19.19-.24.42-.24,1.33,0,1.36.12,1.46,1.71,1.46,1.23,0,1.4,0,1.63-.11.24-.1.32-.28.32-.69h1.6Z"/>
    <path class="cls-9" d="M15.89,101.75c.84.16,1.24.61,1.36,1.52.03.23.05.69.05,1.38,0,1.37-.14,1.92-.6,2.32-.33.29-.78.43-1.57.46-.29.02-1.01.02-1.54.02-1.29,0-1.95-.02-2.27-.09-.6-.11-.95-.35-1.15-.76-.21-.42-.26-.83-.26-2.07,0-.95.02-1.19.11-1.57.15-.6.47-.93,1.08-1.11.46-.14.95-.17,2.38-.17,1.56,0,2.04.02,2.42.09M11.85,103.25c-.22.18-.28.46-.28,1.27s.06,1.14.27,1.32c.22.19.49.22,1.73.22,1.42,0,1.71-.05,1.9-.32.15-.2.19-.49.19-1.25,0-1.43-.02-1.44-2.05-1.44-1.21,0-1.54.04-1.75.2"/>
    <path class="cls-9" d="M26.3,101.75c.84.16,1.24.61,1.36,1.52.03.23.05.69.05,1.38,0,1.37-.14,1.92-.6,2.32-.32.29-.78.43-1.57.46-.29.02-1.01.02-1.54.02-1.29,0-1.95-.02-2.27-.09-.6-.11-.95-.35-1.15-.76-.21-.42-.26-.83-.26-2.07,0-.95.02-1.19.11-1.57.15-.6.47-.93,1.08-1.11.45-.14.95-.17,2.38-.17,1.56,0,2.04.02,2.42.09M22.26,103.25c-.22.18-.28.46-.28,1.27s.06,1.14.27,1.32c.22.19.49.22,1.73.22,1.42,0,1.71-.05,1.9-.32.15-.2.19-.49.19-1.25,0-1.43-.03-1.44-2.05-1.44-1.21,0-1.54.04-1.75.2"/>
    <polygon class="cls-9" points="30.83 101.72 32.48 101.72 32.48 105.99 36.21 105.99 36.21 107.39 30.83 107.39 30.83 101.72"/>
    <rect class="cls-9" x="38.9" y="101.72" width="1.65" height="5.67"/>
    <polygon class="cls-9" points="43.79 101.72 46.41 101.72 49.69 106.03 49.65 101.72 51.21 101.72 51.21 107.39 48.56 107.39 45.33 103.12 45.37 107.39 43.79 107.39 43.79 101.72"/>
    <path class="cls-9" d="M59.76,103.64c0-.44-.19-.61-.68-.63h-1s-.6,0-.6,0q-.79,0-.98.05c-.3.08-.43.24-.47.59-.02.15-.04.67-.04,1.04,0,.77.07,1.07.3,1.23.19.13.41.18.84.19q.18,0,1.19,0c1.08,0,1.28-.05,1.42-.42.02-.07.02-.14.02-.31v-.14h-2.09v-1.05h3.69v.78c0,.94-.03,1.27-.14,1.57-.19.53-.57.78-1.25.86-.17.02-.67.02-2.26.02-1.24,0-1.72-.02-2.06-.1-.59-.14-.94-.4-1.13-.87-.16-.38-.2-.78-.2-1.83,0-1.22.07-1.7.28-2.1.24-.44.62-.67,1.32-.77.37-.05,1.03-.08,2.06-.08,1.48,0,1.95.03,2.29.11.84.22,1.1.66,1.1,1.85h-1.62Z"/>
    <path class="cls-9" d="M70.77,101.72h2.21l2.96,5.67h-1.8l-.54-1.01h-3.49l-.52,1.01h-1.87l3.05-5.67ZM73.02,105.2l-1.17-2.26-1.15,2.26h2.32Z"/>
    <polygon class="cls-9" points="78.52 101.72 81.14 101.72 84.42 106.03 84.38 101.72 85.94 101.72 85.94 107.39 83.29 107.39 80.06 103.12 80.1 107.39 78.52 107.39 78.52 101.72"/>
    <path class="cls-9" d="M89.17,101.72h4.68c1.14,0,1.68.14,2.05.53.3.31.42.66.48,1.39.02.26.03.65.03.93,0,.51-.03,1.1-.08,1.42-.09.68-.54,1.21-1.14,1.33-.31.07-.55.08-1.13.08h-4.9v-5.67ZM93.58,106.04c.45,0,.48,0,.67-.07.4-.13.5-.42.5-1.4,0-1.19-.2-1.44-1.14-1.44h-2.79v2.91h2.76Z"/>
    <polygon class="cls-9" points="103.41 101.72 105.06 101.72 105.06 103.82 108.81 103.82 108.81 101.72 110.45 101.72 110.45 107.39 108.81 107.39 108.81 105.22 105.06 105.22 105.06 107.39 103.41 107.39 103.41 101.72"/>
    <polygon class="cls-9" points="119.69 101.72 119.69 103 115.31 103 115.31 103.98 119.44 103.98 119.44 105.1 115.31 105.1 115.31 106.11 119.74 106.11 119.74 107.39 113.69 107.39 113.69 101.72 119.69 101.72"/>
    <path class="cls-9" d="M125.48,101.72h2.21l2.96,5.67h-1.8l-.54-1.01h-3.49l-.52,1.01h-1.87l3.04-5.67ZM127.73,105.2l-1.17-2.26-1.15,2.26h2.32Z"/>
    <polygon class="cls-9" points="134.5 103.12 132.09 103.12 132.09 101.72 138.56 101.72 138.56 103.12 136.15 103.12 136.15 107.39 134.5 107.39 134.5 103.12"/>
    <rect class="cls-9" x="141.43" y="101.72" width="1.65" height="5.67"/>
    <polygon class="cls-9" points="146.32 101.72 148.94 101.72 152.22 106.03 152.18 101.72 153.74 101.72 153.74 107.39 151.1 107.39 147.86 103.12 147.9 107.39 146.32 107.39 146.32 101.72"/>
    <path class="cls-9" d="M162.29,103.64c0-.44-.19-.61-.68-.63h-1s-.6,0-.6,0q-.79,0-.98.05c-.3.08-.43.24-.47.59-.02.15-.04.67-.04,1.04,0,.77.07,1.07.3,1.23.19.13.41.18.84.19q.18,0,1.19,0c1.08,0,1.28-.05,1.42-.42.02-.07.02-.14.02-.31v-.14h-2.09v-1.05h3.69v.78c0,.94-.03,1.27-.14,1.57-.19.53-.57.78-1.25.86-.17.02-.67.02-2.26.02-1.24,0-1.72-.02-2.06-.1-.59-.14-.94-.4-1.13-.87-.16-.38-.2-.78-.2-1.83,0-1.22.07-1.7.28-2.1.24-.44.62-.67,1.32-.77.37-.05,1.03-.08,2.06-.08,1.48,0,1.95.03,2.29.11.84.22,1.1.66,1.1,1.85h-1.62Z"/>
  </g>
</svg>