<?xml version="1.0" encoding="UTF-8"?>
<svg id="Layer_2" data-name="Layer 2" xmlns="http://www.w3.org/2000/svg" viewBox="0 0 63.24 63.36">
  <defs>
    <style>
      .cls-1 {
        fill: #fff;
      }
    </style>
  </defs>
  <g id="Layer_2-2" data-name="Layer 2">
    <g>
      <path class="cls-1" d="M0,18.31v-.87c.1-3.77,1.62-5.73,4.08-8.35,3.42-3.65,7.29-7.97,12.31-3.65,1.86,1.6,7.7,7.25,8.82,9.12,1.75,2.94.81,5.47-1.27,7.83-1.24,1.4-2.79,2.72-4.13,4.03,1.51,3.33,3.84,6.31,6.35,8.95,3,3.16,6.62,6.09,10.54,8.02,3.12-2.39,5.4-7.11,10.06-6.11,1.25.27,2.21.97,3.15,1.8,2.27,1.99,5.35,5.09,7.36,7.36,5.08,5.7.34,9.25-3.72,13.23-2.22,2.18-3.8,3.41-7.11,3.65-8.64.62-21.2-7.24-27.52-12.8C10.92,43.5.27,29.28,0,18.31ZM11.59,7.33c-.28.06-.96.46-1.21.65-1.21.93-5.61,5.45-6.15,6.71-2.09,4.84,2.03,13.64,4.53,17.93,5.38,9.24,13.7,17.42,23.07,22.57,4.08,2.24,12.23,6,16.74,3.96,1.29-.58,5.19-4.54,6.23-5.77,1.5-1.78,1.34-2.75-.12-4.46-1.76-2.04-5.19-5.51-7.24-7.23-.79-.66-1.37-1.03-2.47-.85-1.31.21-4.84,4.63-6.19,5.68-1.11.86-1.95.93-3.23.4-6.46-2.68-15.41-11.59-18.54-17.82-.69-1.37-1.47-3.03-.48-4.45s3.26-2.99,4.51-4.39c1.42-1.59,2.2-2.52.62-4.46-2.2-2.69-5.49-5.11-7.79-7.79-.64-.53-1.43-.82-2.26-.65Z"/>
      <path class="cls-1" d="M35.5.01c1.37.16,3.78.9,5.14,1.36,10.71,3.62,19.42,13.03,22.09,24.04.22.89.76,2.86.38,3.63-.6,1.21-2.47,1.32-3.17.15-.46-.77-.91-3.75-1.28-4.91-2.87-9.02-10.4-16.61-19.38-19.57-1.52-.5-3.25-.67-4.67-1.14-1.85-.62-1.77-2.92.03-3.55.28.02.59-.03.87,0Z"/>
      <path class="cls-1" d="M34.1,11.54c.77-.16,2.33.3,3.13.53,6.79,1.96,12.47,7.76,14.19,14.63.13.52.39,1.46.41,1.95.07,2.15-2.83,2.68-3.56.58-.36-1.04-.49-2.2-.9-3.31-1.75-4.72-5.88-8.68-10.67-10.24-1.56-.5-4.4-.46-3.9-2.84.11-.53.77-1.19,1.3-1.3Z"/>
    </g>
  </g>
</svg>