<?xml version="1.0" encoding="UTF-8"?>
<svg id="Layer_2" data-name="Layer 2" xmlns="http://www.w3.org/2000/svg" viewBox="0 0 61.94 61.96">
  <defs>
    <style>
      .cls-1 {
        fill: #2c2957;
      }
    </style>
  </defs>
  <g id="Layer_2-2" data-name="Layer 2">
    <path class="cls-1" d="M7.6,61.94c-7.09-.7-10.17-9.76-5.09-14.7l25.12-25.1c-1.21-4.89-.54-9.91,2.19-14.14C34,1.51,42.07-1.51,49.53.74c2,.6,3.49,1.56,1.88,3.68l-9.26,9.26,1.12,5.08,5,1.03,9.2-9.2c.95-1,2.52-1,3.2.32.57,1.1,1.18,3.82,1.28,5.07v2.9l-.69,3.48c-2.65,9.12-12.26,14.41-21.45,11.94l-25.17,25.17c-1.46,1.33-3.14,2.13-5.08,2.48-.63-.04-1.32.06-1.94,0ZM46.69,3.87c-9.69-1.53-17.65,6.94-15.68,16.58.22,1.08.92,2.11.29,3.18L4.53,50.58c-3.03,4.55,2.33,9.93,6.89,6.77l26.89-26.72c1.07-.63,2.11.07,3.18.29,5.13,1.05,10.36-.68,13.68-4.73,2.42-2.95,3.61-7.17,2.91-10.94l-7.98,7.93c-.54.51-1.16.46-1.85.39-1.63-.17-5.3-.97-6.87-1.48-.79-.25-1.12-.45-1.42-1.24-.51-1.3-1.42-5.7-1.57-7.14-.07-.69-.12-1.31.39-1.84l7.93-7.98Z"/>
  </g>
</svg>